<svg width="32" height="32" viewBox="0 0 32 32" fill="none" xmlns="http://www.w3.org/2000/svg">
  <rect width="32" height="32" rx="6" fill="#2563EB"/>
  
  <path d="M11 11C11 9.34315 12.3431 8 14 8H20C21.1046 8 22 8.89543 22 10V11C22 12.1046 21.1046 13 20 13H14C13.4477 13 13 13.4477 13 14V15C13 15.5523 13.4477 16 14 16H18C19.6569 16 21 17.3431 21 19V21C21 22.6569 19.6569 24 18 24H12C10.8954 24 10 23.1046 10 22V21C10 19.8954 10.8954 19 12 19H18C18.5523 19 19 18.5523 19 18V17C19 16.4477 18.5523 16 18 16H14C12.3431 16 11 14.6569 11 13V11Z" fill="white"/>
</svg>
